<svg width="73" height="74" viewBox="0 0 73 74" fill="none" xmlns="http://www.w3.org/2000/svg">
<path d="M15.6988 58.2997C3.99883 46.5997 3.99883 27.3997 15.6988 15.6997" stroke="white" stroke-width="6" stroke-linecap="round" stroke-linejoin="round"/>
<path d="M24.4006 49.5999C17.5006 42.6999 17.5006 31.2999 24.4006 24.0999" stroke="white" stroke-width="6" stroke-linecap="round" stroke-linejoin="round"/>
<path d="M37 43C40.3137 43 43 40.3137 43 37C43 33.6863 40.3137 31 37 31C33.6863 31 31 33.6863 31 37C31 40.3137 33.6863 43 37 43Z" stroke="white" stroke-width="6" stroke-linecap="round" stroke-linejoin="round"/>
<path d="M49.6006 24.4001C56.5006 31.3001 56.5006 42.7001 49.6006 49.9001" stroke="white" stroke-width="6" stroke-linecap="round" stroke-linejoin="round"/>
<path d="M58.2988 15.6997C69.9988 27.3997 69.9988 46.2997 58.2988 57.9997" stroke="white" stroke-width="6" stroke-linecap="round" stroke-linejoin="round"/>
</svg>
