<svg width="297" height="278" viewBox="0 0 297 278" fill="none" xmlns="http://www.w3.org/2000/svg">
<path d="M175 139C175 155.569 161.569 169 145 169C128.431 169 115 155.569 115 139C115 122.431 128.431 109 145 109C161.569 109 175 122.431 175 139Z" fill="white"/>
<circle cx="32" cy="32" r="23" stroke="white" stroke-width="14"/>
<circle cx="267" cy="243" r="23" stroke="white" stroke-width="14"/>
<circle cx="32" cy="243" r="23" stroke="white" stroke-width="14"/>
<circle cx="267" cy="32" r="23" stroke="white" stroke-width="14"/>
<path d="M243 46L46 222" stroke="white" stroke-width="18" stroke-linecap="round"/>
<path d="M52 50L243 222" stroke="white" stroke-width="18" stroke-linecap="round"/>
<circle cx="144" cy="37" r="23" stroke="white" stroke-width="14"/>
<circle cx="40" cy="137" r="23" stroke="white" stroke-width="14"/>
<circle cx="257" cy="137" r="23" stroke="white" stroke-width="14"/>
<circle cx="144" cy="240" r="23" stroke="white" stroke-width="14"/>
<path d="M70 137L227 137" stroke="white" stroke-width="18" stroke-linecap="round"/>
<path d="M144 63L143.245 210.108" stroke="white" stroke-width="18" stroke-linecap="round"/>
</svg>
